<?xml version="1.0" encoding="UTF-8"?>
<svg id="Layer_1" data-name="Layer 1" xmlns="http://www.w3.org/2000/svg" viewBox="0 0 2000 946.83">
  <defs>
    <style>
      .cls-1 {
        letter-spacing: -.02em;
      }

      .cls-2 {
        letter-spacing: -.04em;
      }

      .cls-3 {
        fill: #2d2e73;
      }

      .cls-4 {
        letter-spacing: 0em;
      }

      .cls-5 {
        letter-spacing: 0em;
      }

      .cls-6 {
        letter-spacing: -.04em;
      }

      .cls-7 {
        letter-spacing: -.05em;
      }

      .cls-8 {
        letter-spacing: 0em;
      }

      .cls-9 {
        letter-spacing: -.04em;
      }

      .cls-10 {
        letter-spacing: -.01em;
      }

      .cls-11 {
        fill: #fff;
        font-family: Futura100-Medium, 'Futura 100';
        font-size: 64.93px;
        font-weight: 500;
      }
    </style>
  </defs>
  <g>
    <g>
      <path class="cls-3" d="M708.85,424.15l-17.5-39.74h-61.14l-17.92,39.74h-26.35l74.74-160.44,74.63,160.44h-26.46ZM639.49,363.54h43.01l-15.81-35.21c-.92-2.25-1.86-4.83-2.85-7.75-.98-2.92-1.97-6.17-2.95-9.75-.84,3.37-1.74,6.52-2.69,9.43-.95,2.92-1.91,5.61-2.9,8.06l-15.81,35.21Z"/>
      <path class="cls-3" d="M835.54,352.68c-3.51-3.86-7.61-6.81-12.28-8.85-4.68-2.04-9.72-3.06-15.13-3.06-9.35,0-16.83,3.02-22.45,9.06-5.62,6.05-8.43,14.06-8.43,24.03s2.83,18.57,8.49,24.51c5.65,5.94,13.47,8.91,23.45,8.91,5.55,0,10.5-1.04,14.86-3.11,4.36-2.07,8.19-5.22,11.49-9.44v26.35c-4.22,2.39-8.73,4.18-13.54,5.37-4.81,1.2-9.93,1.79-15.34,1.79-15.67,0-28.44-4.99-38.32-14.97-9.87-9.98-14.81-22.91-14.81-38.79s5.11-29.07,15.34-38.95c10.23-9.87,23.59-14.81,40.11-14.81,5.2,0,9.98.51,14.34,1.53,4.36,1.02,8.43,2.59,12.23,4.69v25.72Z"/>
      <path class="cls-3" d="M894.77,340.14c2.46-6.6,5.71-11.49,9.75-14.65,4.04-3.16,9.05-4.74,15.02-4.74,3.23,0,6.41.39,9.54,1.16,3.13.77,6.2,1.9,9.22,3.37l-8.22,19.39c-1.97-1.41-4.09-2.44-6.37-3.11-2.29-.67-4.83-1-7.64-1-7.59,0-13.04,3.04-16.34,9.12-3.31,6.08-4.95,16.29-4.95,30.62v43.85h-22.87v-100.14h22.87v16.13Z"/>
      <path class="cls-3" d="M1060.57,377.56h-79.9c.56,9.35,3.34,16.64,8.33,21.87,4.99,5.24,11.63,7.85,19.92,7.85,7.38,0,13.53-1.54,18.45-4.64,4.92-3.09,9.2-8.08,12.86-14.97l19.29,10.75c-5.62,10.05-12.58,17.54-20.87,22.45-8.29,4.92-18.03,7.38-29.2,7.38-16.02,0-28.78-4.88-38.27-14.65-9.49-9.77-14.23-22.8-14.23-39.11s4.9-28.55,14.71-38.63c9.8-10.08,22.4-15.13,37.79-15.13s28.64,4.6,37.63,13.81c8.99,9.21,13.49,22.1,13.49,38.69v4.32ZM1036.86,362.17c-.91-7.17-3.66-12.63-8.22-16.39-4.57-3.76-10.82-5.64-18.76-5.64-7.52,0-13.56,1.83-18.13,5.48-4.57,3.66-7.77,9.17-9.59,16.55h54.71Z"/>
      <path class="cls-3" d="M1274.22,424.15l-12.44-14.65c-7.31,6.25-14.81,10.88-22.5,13.86-7.69,2.99-16.11,4.48-25.24,4.48-14.2,0-25.74-4.11-34.63-12.33-8.89-8.22-13.34-18.8-13.34-31.73,0-8.78,2.74-16.88,8.22-24.3,5.48-7.41,14.2-14.84,26.14-22.3l-6.22-6.75c-3.44-3.72-6.08-7.8-7.9-12.23-1.83-4.43-2.74-8.92-2.74-13.49,0-10.12,3.71-18.43,11.12-24.93,7.41-6.5,16.95-9.75,28.62-9.75s20.8,2.94,27.62,8.8c6.82,5.87,10.23,13.79,10.23,23.77,0,7.52-2.39,14.39-7.17,20.61-4.78,6.22-12.41,12.39-22.87,18.5l32.15,37.32c3.09-3.09,6.25-6.6,9.49-10.54,3.23-3.94,6.68-8.47,10.33-13.6l14.76,15.71c-2.81,4.5-5.94,8.77-9.38,12.81-3.44,4.04-7.17,7.82-11.17,11.33l25.93,29.41h-28.99ZM1247.55,393.06l-33.73-38.9-3.9,2.63c-7.38,4.78-12.53,9.16-15.44,13.13-2.92,3.97-4.38,8.38-4.38,13.23,0,6.82,2.39,12.58,7.17,17.29,4.78,4.71,10.72,7.06,17.81,7.06,5.27,0,10.59-1.19,15.97-3.58,5.38-2.39,10.87-6.01,16.5-10.86ZM1219.83,325.7l5.69-3.27c3.94-2.32,6.89-5.01,8.86-8.06,1.97-3.06,2.95-6.48,2.95-10.28,0-4.36-1.33-7.92-4.01-10.7-2.67-2.77-6.15-4.16-10.43-4.16-4.71,0-8.5,1.41-11.38,4.22-2.88,2.81-4.32,6.43-4.32,10.86,0,2.18.4,4.29,1.21,6.33.81,2.04,2.05,3.97,3.74,5.8l7.69,9.28Z"/>
      <path class="cls-3" d="M1537.1,307.36c-7.1-6.05-14.6-10.58-22.51-13.6-7.9-3.02-16.22-4.53-24.93-4.53-16.87,0-30.59,5.41-41.16,16.23-10.58,10.82-15.87,24.84-15.87,42.06s5.15,30.39,15.44,41.22c10.29,10.82,23.28,16.23,38.95,16.23,9.13,0,17.83-1.62,26.09-4.85,8.26-3.23,16.18-8.12,23.77-14.65v28.35c-6.75,4.85-14.09,8.47-22.03,10.86-7.94,2.39-16.55,3.58-25.82,3.58-11.81,0-22.72-1.93-32.73-5.8-10.01-3.86-18.82-9.56-26.4-17.08-7.52-7.38-13.3-16.08-17.34-26.09-4.04-10.02-6.06-20.68-6.06-31.99s2.02-21.94,6.06-31.89c4.04-9.94,9.89-18.67,17.55-26.19,7.66-7.59,16.45-13.34,26.35-17.23,9.91-3.9,20.62-5.85,32.15-5.85,9.06,0,17.71,1.32,25.93,3.95,8.22,2.64,16.2,6.62,23.93,11.97l-1.37,25.3Z"/>
      <path class="cls-3" d="M1571.87,374.29c0-7.31,1.39-14.21,4.17-20.71,2.77-6.5,6.76-12.28,11.96-17.34,5.13-4.99,11.03-8.82,17.71-11.49,6.68-2.67,13.67-4.01,20.98-4.01s14.6,1.33,21.24,4.01,12.6,6.61,17.87,11.81c5.27,5.13,9.28,10.93,12.02,17.39,2.74,6.47,4.11,13.25,4.11,20.34s-1.35,14.3-4.06,20.77c-2.71,6.47-6.66,12.19-11.86,17.18-5.48,5.27-11.56,9.26-18.24,11.96-6.68,2.71-13.7,4.06-21.08,4.06s-14.2-1.35-20.87-4.06c-6.68-2.7-12.62-6.62-17.81-11.75-5.27-5.2-9.28-11.03-12.02-17.5-2.74-6.47-4.11-13.35-4.11-20.66ZM1657.78,374.5c0-9.28-2.99-17.13-8.96-23.56-5.98-6.43-13.28-9.65-21.93-9.65s-15.86,3.22-21.87,9.65c-6.01,6.43-9.01,14.28-9.01,23.56s3,17.13,9.01,23.56c6.01,6.43,13.3,9.64,21.87,9.64s15.87-3.21,21.87-9.64c6.01-6.43,9.01-14.28,9.01-23.56Z"/>
      <path class="cls-3" d="M589.21,455.3v-15.28h1101.14v15.28H589.21Z"/>
    </g>
    <g>
      <path class="cls-3" d="M707.84,529.1l17.24-44.99,17.23,44.99,17.07-43.69h8.25l-25.33,63.44-17.23-44.75-17.24,44.75-25.32-63.44h8.25l17.07,43.69Z"/>
      <path class="cls-3" d="M786.98,476.18v37.47h.16c1.08-2,2.66-3.53,4.73-4.61s4.3-1.62,6.68-1.62c2.59,0,4.76.4,6.51,1.21,1.75.81,3.14,1.96,4.17,3.44,1.02,1.48,1.74,3.21,2.14,5.18.4,1.97.61,4.17.61,6.59v22.58h-7.28v-21.69c0-3.72-.53-6.46-1.58-8.21-1.05-1.75-3.31-2.63-6.76-2.63-2.21,0-3.98.43-5.3,1.29-1.32.86-2.27,2.01-2.83,3.44-.57,1.43-.92,2.93-1.05,4.49-.13,1.57-.2,3.53-.2,5.91v17.4h-7.28v-70.24h7.28Z"/>
      <path class="cls-3" d="M834.48,528.7c.05,3.4,1.13,6.34,3.24,8.82,2.1,2.48,4.83,3.72,8.17,3.72,2.64,0,4.81-.61,6.52-1.82,1.7-1.21,3.3-3.06,4.81-5.54l6.15,3.48c-1.78,3.24-4.22,5.77-7.32,7.61-3.1,1.83-6.52,2.75-10.24,2.75-2.86,0-5.43-.5-7.73-1.5-2.3-1-4.25-2.4-5.87-4.21-1.62-1.81-2.86-3.92-3.72-6.35-.86-2.43-1.3-5.04-1.3-7.85,0-6.04,1.59-10.95,4.77-14.73,3.18-3.78,7.74-5.66,13.68-5.66s10.17,1.87,13.19,5.62c3.02,3.75,4.53,8.59,4.53,14.53v1.13h-28.89ZM856.08,523.2c-.43-2.91-1.57-5.22-3.4-6.92s-4.18-2.55-7.04-2.55-5.19.89-7.16,2.67c-1.97,1.78-3.17,4.05-3.6,6.8h21.2Z"/>
      <path class="cls-3" d="M885.45,514.7h.24c.92-2.26,2.28-4.05,4.09-5.34,1.81-1.29,3.9-1.94,6.27-1.94,2.05,0,4.05.62,5.99,1.86l-3.32,6.63c-1.19-1.02-2.67-1.54-4.45-1.54-1.89,0-3.43.39-4.61,1.17-1.19.78-2.08,1.81-2.67,3.08-.59,1.27-1,2.67-1.21,4.21s-.32,3.2-.32,4.97v18.61h-7.28v-37.87h7.28v6.15Z"/>
      <path class="cls-3" d="M918.55,528.7c.05,3.4,1.13,6.34,3.24,8.82,2.1,2.48,4.83,3.72,8.17,3.72,2.64,0,4.81-.61,6.52-1.82,1.7-1.21,3.3-3.06,4.81-5.54l6.15,3.48c-1.78,3.24-4.22,5.77-7.32,7.61-3.1,1.83-6.52,2.75-10.24,2.75-2.86,0-5.43-.5-7.73-1.5-2.3-1-4.25-2.4-5.87-4.21-1.62-1.81-2.86-3.92-3.72-6.35-.86-2.43-1.3-5.04-1.3-7.85,0-6.04,1.59-10.95,4.77-14.73,3.18-3.78,7.74-5.66,13.68-5.66s10.17,1.87,13.19,5.62c3.02,3.75,4.53,8.59,4.53,14.53v1.13h-28.89ZM940.15,523.2c-.43-2.91-1.57-5.22-3.4-6.92s-4.18-2.55-7.04-2.55-5.19.89-7.16,2.67c-1.97,1.78-3.17,4.05-3.6,6.8h21.2Z"/>
      <path class="cls-3" d="M1001.65,539.46h18.53v6.96h-26.13v-61.01h7.61v54.05Z"/>
      <path class="cls-3" d="M1041.29,487.63c.97,1,1.45,2.2,1.45,3.6s-.48,2.51-1.45,3.48c-.97.97-2.16,1.46-3.56,1.46s-2.59-.49-3.56-1.46c-.97-.97-1.46-2.13-1.46-3.48s.48-2.6,1.46-3.6c.97-1,2.16-1.5,3.56-1.5s2.59.5,3.56,1.5ZM1041.37,546.42h-7.28v-37.87h7.28v37.87Z"/>
      <path class="cls-3" d="M1074.06,532.18l10.93-23.63h8.17l-19.1,39.16-19.02-39.16h8.17l10.84,23.63Z"/>
      <path class="cls-3" d="M1114.04,487.63c.97,1,1.45,2.2,1.45,3.6s-.48,2.51-1.45,3.48c-.97.97-2.16,1.46-3.56,1.46s-2.59-.49-3.56-1.46c-.97-.97-1.46-2.13-1.46-3.48s.48-2.6,1.46-3.6c.97-1,2.16-1.5,3.56-1.5s2.59.5,3.56,1.5ZM1114.12,546.42h-7.28v-37.87h7.28v37.87Z"/>
      <path class="cls-3" d="M1141.15,513.65h.16c1.08-2,2.66-3.53,4.73-4.61,2.08-1.08,4.3-1.62,6.68-1.62,2.59,0,4.76.4,6.51,1.21,1.75.81,3.14,1.96,4.17,3.44,1.02,1.48,1.74,3.21,2.14,5.18.4,1.97.61,4.17.61,6.59v22.58h-7.28v-21.69c0-3.72-.53-6.46-1.58-8.21-1.05-1.75-3.31-2.63-6.76-2.63-2.21,0-3.98.43-5.3,1.29-1.32.86-2.27,2.01-2.83,3.44-.57,1.43-.92,2.93-1.05,4.49-.13,1.57-.2,3.53-.2,5.91v17.4h-7.28v-37.87h7.28v5.1Z"/>
      <path class="cls-3" d="M1219.71,545.69c0,3.45-.28,6.53-.85,9.22-.57,2.7-1.54,5.03-2.91,7-1.37,1.97-3.28,3.49-5.7,4.57-2.43,1.08-5.42,1.62-8.98,1.62-5.34,0-9.7-1.54-13.07-4.61s-5.11-7.26-5.22-12.54h7.28c0,3.35,1.04,5.96,3.11,7.85,2.08,1.89,4.82,2.83,8.21,2.83,2.16,0,3.95-.35,5.38-1.05,1.43-.7,2.53-1.67,3.32-2.91.78-1.24,1.33-2.68,1.66-4.33.32-1.64.48-3.52.48-5.62v-7.2h-.16c-1.51,2.21-3.39,3.97-5.62,5.26-2.24,1.3-4.65,1.94-7.24,1.94-2.81,0-5.34-.54-7.61-1.62-2.27-1.08-4.18-2.57-5.75-4.49-1.56-1.91-2.75-4.1-3.56-6.56-.81-2.45-1.21-5.06-1.21-7.81,0-2.59.42-5.08,1.25-7.49.84-2.4,2.04-4.52,3.6-6.35s3.45-3.29,5.67-4.37c2.21-1.08,4.64-1.62,7.28-1.62s5.24.66,7.49,1.98c2.24,1.32,4.14,3.2,5.7,5.62h.16v-6.47h7.28v37.14ZM1209.56,537.27c2.19-2.64,3.28-5.91,3.28-9.79s-1.1-7.05-3.32-9.67-5.21-3.92-8.98-3.92-6.52,1.34-8.7,4.01c-2.19,2.67-3.28,5.87-3.28,9.59s1.08,7.01,3.24,9.71c2.15,2.7,5.07,4.05,8.74,4.05s6.84-1.32,9.02-3.97Z"/>
      <path class="cls-3" d="M1268.91,485.41h7.45c3.13,0,6,.24,8.62.73,2.62.49,4.96,1.35,7.04,2.59,2.08,1.24,3.71,2.97,4.89,5.18,1.19,2.21,1.78,4.96,1.78,8.25,0,2.32-.59,4.6-1.78,6.84-1.18,2.24-2.78,3.82-4.77,4.73v.16c1.78.32,3.41.97,4.9,1.94,1.48.97,2.78,2.17,3.88,3.6,1.11,1.43,1.96,3,2.55,4.69.59,1.7.89,3.44.89,5.22,0,2.97-.58,5.54-1.74,7.73-1.16,2.18-2.74,3.96-4.73,5.34-2,1.37-4.25,2.39-6.76,3.04-2.51.65-5.17.97-7.97.97h-14.24v-61.01ZM1276.51,512.43h1.94c1.99,0,3.76-.13,5.3-.4s2.9-.77,4.09-1.5c1.18-.73,2.1-1.77,2.75-3.12.65-1.35.97-3.08.97-5.18s-.32-3.75-.97-5.1c-.65-1.35-1.55-2.37-2.71-3.08-1.16-.7-2.5-1.18-4.01-1.45-1.51-.27-3.26-.4-5.26-.4h-2.1v20.23ZM1276.51,539.62h5.83c1.94,0,3.75-.16,5.42-.48s3.18-.89,4.53-1.7,2.43-1.93,3.24-3.36,1.21-3.17,1.21-5.22-.46-3.76-1.37-5.14c-.92-1.38-2.15-2.44-3.68-3.2s-3.18-1.28-4.93-1.58c-1.75-.3-3.6-.44-5.54-.44h-4.69v21.12Z"/>
      <path class="cls-3" d="M1324.5,528.7c.05,3.4,1.13,6.34,3.24,8.82,2.1,2.48,4.83,3.72,8.17,3.72,2.64,0,4.81-.61,6.52-1.82,1.7-1.21,3.3-3.06,4.81-5.54l6.15,3.48c-1.78,3.24-4.22,5.77-7.32,7.61-3.1,1.83-6.52,2.75-10.24,2.75-2.86,0-5.43-.5-7.73-1.5-2.3-1-4.25-2.4-5.87-4.21-1.62-1.81-2.86-3.92-3.72-6.35-.86-2.43-1.3-5.04-1.3-7.85,0-6.04,1.59-10.95,4.77-14.73,3.18-3.78,7.74-5.66,13.68-5.66s10.17,1.87,13.19,5.62c3.02,3.75,4.53,8.59,4.53,14.53v1.13h-28.89ZM1346.1,523.2c-.43-2.91-1.57-5.22-3.4-6.92s-4.18-2.55-7.04-2.55-5.19.89-7.16,2.67c-1.97,1.78-3.17,4.05-3.6,6.8h21.2Z"/>
      <path class="cls-3" d="M1403.15,545.69c0,3.45-.28,6.53-.85,9.22-.57,2.7-1.54,5.03-2.91,7-1.37,1.97-3.28,3.49-5.7,4.57-2.43,1.08-5.42,1.62-8.98,1.62-5.34,0-9.7-1.54-13.07-4.61-3.37-3.08-5.11-7.26-5.22-12.54h7.28c0,3.35,1.04,5.96,3.11,7.85,2.08,1.89,4.82,2.83,8.21,2.83,2.16,0,3.95-.35,5.38-1.05,1.43-.7,2.53-1.67,3.32-2.91.78-1.24,1.33-2.68,1.66-4.33.32-1.64.48-3.52.48-5.62v-7.2h-.16c-1.51,2.21-3.39,3.97-5.62,5.26-2.24,1.3-4.65,1.94-7.24,1.94-2.81,0-5.34-.54-7.61-1.62-2.27-1.08-4.18-2.57-5.75-4.49-1.56-1.91-2.75-4.1-3.56-6.56-.81-2.45-1.21-5.06-1.21-7.81,0-2.59.42-5.08,1.25-7.49.84-2.4,2.04-4.52,3.6-6.35,1.56-1.83,3.45-3.29,5.67-4.37,2.21-1.08,4.64-1.62,7.28-1.62s5.24.66,7.49,1.98c2.24,1.32,4.14,3.2,5.7,5.62h.16v-6.47h7.28v37.14ZM1392.99,537.27c2.19-2.64,3.28-5.91,3.28-9.79s-1.1-7.05-3.32-9.67c-2.21-2.62-5.21-3.92-8.98-3.92s-6.52,1.34-8.7,4.01c-2.19,2.67-3.28,5.87-3.28,9.59s1.08,7.01,3.24,9.71c2.15,2.7,5.07,4.05,8.74,4.05s6.84-1.32,9.02-3.97Z"/>
      <path class="cls-3" d="M1429.53,487.63c.97,1,1.45,2.2,1.45,3.6s-.48,2.51-1.45,3.48c-.97.97-2.16,1.46-3.56,1.46s-2.59-.49-3.56-1.46c-.97-.97-1.46-2.13-1.46-3.48s.48-2.6,1.46-3.6c.97-1,2.16-1.5,3.56-1.5s2.59.5,3.56,1.5ZM1429.61,546.42h-7.28v-37.87h7.28v37.87Z"/>
      <path class="cls-3" d="M1456.63,513.65h.16c1.08-2,2.66-3.53,4.73-4.61s4.3-1.62,6.68-1.62c2.59,0,4.76.4,6.51,1.21,1.75.81,3.14,1.96,4.17,3.44,1.02,1.48,1.74,3.21,2.14,5.18s.61,4.17.61,6.59v22.58h-7.28v-21.69c0-3.72-.53-6.46-1.58-8.21-1.05-1.75-3.31-2.63-6.76-2.63-2.21,0-3.98.43-5.3,1.29-1.32.86-2.27,2.01-2.83,3.44-.57,1.43-.92,2.93-1.05,4.49-.13,1.57-.2,3.53-.2,5.91v17.4h-7.28v-37.87h7.28v5.1Z"/>
      <path class="cls-3" d="M1514.97,517.21c-.43-.97-1.09-1.77-1.98-2.39s-1.85-.93-2.87-.93-1.94.36-2.75,1.09-1.21,1.61-1.21,2.63c0,1.29.58,2.36,1.74,3.2,1.16.83,2.98,1.79,5.46,2.87.7.32,1.24.57,1.62.73,2.7,1.24,4.83,2.67,6.39,4.29,1.56,1.62,2.35,3.78,2.35,6.48,0,1.78-.34,3.44-1.01,4.97-.67,1.54-1.62,2.87-2.83,4.01s-2.62,2.01-4.21,2.63c-1.59.62-3.25.93-4.98.93-2.81,0-5.45-.77-7.93-2.31-2.48-1.53-4.21-3.6-5.18-6.19l6.23-2.83c.86,1.56,1.82,2.77,2.87,3.6,1.05.84,2.39,1.25,4.01,1.25s2.98-.5,4.09-1.5c1.11-1,1.66-2.28,1.66-3.84,0-.97-.2-1.74-.61-2.31-.4-.57-1.09-1.17-2.06-1.82l-7.12-3.8c-2.48-1.35-4.32-2.69-5.5-4.01-1.19-1.32-1.78-3.17-1.78-5.54,0-3.08,1.09-5.68,3.28-7.81,2.18-2.13,4.81-3.2,7.89-3.2,2.26,0,4.3.58,6.11,1.74,1.81,1.16,3.22,2.79,4.25,4.9l-5.91,3.16Z"/>
    </g>
  </g>
  <path class="cls-3" d="M465.93,294.37v-20.89h-11.79v14.08l-39.51-22.81h0s0,0,0,0h0s0,0,0,0l-117.88,68.05v.04h0s0,157.17,0,157.17l39.35,22.72v-39.29l39.3,22.69v39.29l39.22,22.64h0s.01,0,.01,0h.01s0,0,0,0l117.87-68.04v-39.29l-78.6,45.37v-78.58l78.6-45.37v-27.54h0s0-11.79,0-11.79l-66.58-38.44ZM315.41,422.2l-11.79-6.81v-11.79l11.79,6.81v11.79ZM315.41,408.45l-11.79-6.81v-11.79l11.79,6.81v11.79ZM315.41,394.7l-11.79-6.81v-11.79l11.79,6.81v11.79ZM329.17,430.14l-11.79-6.81v-11.79l11.79,6.81v11.79ZM329.17,416.39l-11.79-6.81v-11.79l11.79,6.81v11.79ZM329.17,402.64l-11.79-6.81v-11.79l11.79,6.81v11.79ZM375.34,456.8l-39.3-22.69v-39.29l39.3,22.69v39.29ZM394.04,467.59l-11.79-6.81v-11.79l11.79,6.81v11.79ZM394.04,453.83l-11.79-6.81v-11.79l11.79,6.81v11.79ZM394.04,440.08l-11.79-6.81v-11.79l11.79,6.81v11.79ZM407.79,475.53l-11.79-6.81v-11.79l11.79,6.81v11.79ZM407.79,461.77l-11.79-6.81v-11.79l11.79,6.81v11.79ZM407.79,448.02l-11.79-6.81v-11.79l11.79,6.81v11.79ZM449.32,498.75l-29.47,17.01v-9.82l29.47-17.01v9.82ZM449.32,481.56l-29.47,17.01v-9.82l29.47-17.01v9.82ZM449.32,464.37l-29.47,17.01v-9.82l29.47-17.01v9.82ZM449.32,447.18l-29.47,17.01v-9.82l29.47-17.01v9.82ZM449.32,429.98l-29.47,17.01v-9.82l29.47-17.01v9.82ZM414.63,400.89l-107.71-62.17,107.71-62.17,107.71,62.17-107.71,62.17ZM397.92,337.73h15.72v-15.72h-15.72v15.72ZM431.32,322.02h-15.72v15.72h15.72v-15.72ZM397.92,355.42h15.72v-15.72h-15.72v15.72ZM431.32,339.7h-15.72v15.72h15.72v-15.72Z"/>
  <rect class="cls-3" x="288" y="598.47" width="1425.6" height="113.4"/>
  <text class="cls-11" transform="translate(302.29 677.54)"><tspan x="0" y="0">P</tspan><tspan class="cls-9" x="36.56" y="0">R</tspan><tspan class="cls-10" x="71.75" y="0">OM</tspan><tspan class="cls-7" x="188.11" y="0">O</tspan><tspan class="cls-5" x="241.61" y="0">TE</tspan><tspan class="cls-4" x="305.89" y="0">R</tspan><tspan x="343.29" y="0">S | DEVE</tspan><tspan class="cls-2" x="584.64" y="0">L</tspan><tspan x="609.45" y="0">OPE</tspan><tspan class="cls-4" x="735.28" y="0">R</tspan><tspan x="772.68" y="0">S | </tspan><tspan class="cls-8" x="858.2" y="0">C</tspan><tspan x="903.26" y="0">ON</tspan><tspan class="cls-6" x="1013.45" y="0">S</tspan><tspan x="1046.89" y="0">T</tspan><tspan class="cls-1" x="1078.51" y="0">R</tspan><tspan x="1114.81" y="0">UCTIONS</tspan></text>
</svg>